<?xml version="1.0" encoding="UTF-8"?>
<svg id="Layer_1" xmlns="http://www.w3.org/2000/svg" version="1.1" viewBox="0 0 96 96">
  <!-- Generator: Adobe Illustrator 30.4.0, SVG Export Plug-In . SVG Version: 2.1.4 Build 226)  -->
  <defs>
    <style>
      .st0 {
        fill: #231f20;
      }

      .st1 {
        fill: #fbf7ef;
      }
    </style>
  </defs>
  <circle class="st1" cx="48" cy="48" r="48"/>
  <path class="st0" d="M78.2,36.8c-4.6-4.4-10.7-7-17-6.9-4.6,0-9.6,1.5-13.5,4.1-1.3.9-2.5,1.9-3.7,3l-6.6,6.6h0c-2.6,2.7-4.2,6.3-4.2,10.2s2.7,9.8,6.8,12.4c-2.9,1.2-6.2,1.4-9.3.5-2.1-.6-4-1.8-5.6-3.3-2.5-2.6-3.9-6-3.9-9.6,0-3.6,1.3-7,3.9-9.6.2-.2,23.1-23.2,23.1-23.2l2.8,2.8,4.8-17.7c-7.4,2-9.8,2.6-17.7,4.8l2.8,2.8-23.1,23.3h0c-3.4,3.4-5.5,7.5-6.4,12.2-1.6,7.9.9,16,6.5,21.8,4.6,4.4,10.7,6.9,17,6.9,4.6,0,9.6-1.5,13.5-4.1,1.3-.9,2.5-1.9,3.7-3l6.9-6.9h0c2.4-2.6,3.8-6.1,3.8-9.9s-2.7-9.8-6.8-12.4c2.9-1.2,6.2-1.4,9.3-.5,2.1.6,4,1.8,5.6,3.3,2.5,2.6,3.9,6,3.9,9.6s-1.3,7-3.9,9.6c-5.1,5.1-10.2,10.2-15.3,15.3-1.1,1.1-2.4,2.1-3.7,3-3.8,2.6-8.8,4.1-13.5,4.1s-2.1,0-3.2-.2c5.5,3.8,12.1,5.2,18.7,3.9,2.7-.5,7.1-2.1,10.4-4.8h0s14-14,14-14c3.4-3.4,5.5-7.5,6.4-12.2,1.6-7.9-.9-16-6.5-21.8h0ZM52.9,53.9h0v.2h0v.2h0v.2h0v.2h0v.2h0v.2h0c-.4,1.8-1.8,3.3-3.6,3.7h-1.2c-2.7,0-4.9-2.2-4.9-4.9h0v-.2h0v-.2h0c0-.1,0-.2,0-.2h0c0,0,0-.1,0-.1h0v-.2h0v-.2h0c0-.1,0-.1,0-.1h0c.4-1.8,1.8-3.2,3.6-3.6h0s0,0,0,0h.6s0,0,0,0h.5c2.7,0,4.9,2.2,4.9,4.9h0c0,.1,0,.1,0,.1Z"/>
</svg>