<?xml version="1.0" encoding="UTF-8"?>
<svg id="Layer_1" xmlns="http://www.w3.org/2000/svg" version="1.1" viewBox="0 0 205.8 84">
  <!-- Generator: Adobe Illustrator 30.4.0, SVG Export Plug-In . SVG Version: 2.1.4 Build 226)  -->
  <defs>
    <style>
      .st0 {
        fill: #231f20;
      }
    </style>
  </defs>
  <path class="st0" d="M67.3,30.9c-4.6-4.4-10.7-7-17-6.9-4.6,0-9.6,1.5-13.5,4.1-1.3.9-2.5,1.9-3.7,3l-6.6,6.6h0c-2.6,2.7-4.2,6.3-4.2,10.2s2.7,9.8,6.8,12.4c-2.9,1.2-6.2,1.4-9.3.5-2.1-.6-4-1.8-5.6-3.3-2.5-2.6-3.9-6-3.9-9.6,0-3.6,1.3-7,3.9-9.6.2-.2,23.1-23.2,23.1-23.2l2.8,2.8L44.9,0c-7.4,2-9.8,2.6-17.7,4.8l2.8,2.8L6.9,30.8h0c-3.4,3.4-5.5,7.5-6.4,12.2-1.6,7.9.9,16,6.5,21.8,4.6,4.4,10.7,6.9,17,6.9,4.6,0,9.6-1.5,13.5-4.1,1.3-.9,2.5-1.9,3.7-3l6.9-6.9h0c2.4-2.6,3.8-6.1,3.8-9.9s-2.7-9.8-6.8-12.4c2.9-1.2,6.2-1.4,9.3-.5,2.1.6,4,1.8,5.6,3.3,2.5,2.6,3.9,6,3.9,9.6s-1.3,7-3.9,9.6c-5.1,5.1-10.2,10.2-15.3,15.3-1.1,1.1-2.4,2.1-3.7,3-3.8,2.6-8.8,4.1-13.5,4.1s-2.1,0-3.2-.2c5.5,3.8,12.1,5.2,18.7,3.9,2.7-.5,7.1-2.1,10.4-4.8h0s14-14,14-14c3.4-3.4,5.5-7.5,6.4-12.2,1.6-7.9-.9-16-6.5-21.8h0ZM42,47.9h0v.2h0v.2h0v.2h0v.2h0v.2h0v.2h0c-.4,1.8-1.8,3.3-3.6,3.7h-1.2c-2.7,0-4.9-2.2-4.9-4.9h0v-.2h0v-.2h0c0-.1,0-.2,0-.2h0c0,0,0-.1,0-.1h0v-.2h0v-.2h0c0-.1,0-.1,0-.1h0c.4-1.8,1.8-3.2,3.6-3.6h0s0,0,0,0h.6s0,0,0,0h.5c2.7,0,4.9,2.2,4.9,4.9h0c0,.1,0,.1,0,.1Z"/>
  <path class="st0" d="M84.5,29.8v-12.7h.7v12.7s-.7,0-.7,0Z"/>
  <rect class="st0" x="83.9" y="16.5" width="1.9" height="13.9"/>
  <path class="st0" d="M99.5,29.8l-8.7-11.6v11.7h-.7v-12.7h.8l8.7,11.7v-11.7h.7v12.7s-.8,0-.8,0Z"/>
  <polygon class="st0" points="100.1 30.4 100.1 30.4 99.2 30.4 91.4 19.9 91.4 30.4 89.5 30.4 89.5 16.5 90.3 16.5 90.3 16.5 90.3 16.5 91.2 16.5 99 27 99 16.5 100.9 16.5 100.9 30.4 100.1 30.4 100.1 30.4"/>
  <path class="st0" d="M104.4,28l.5-.5c.4.4,1.8,1.6,4.3,1.6s3.7-.9,3.7-2.3-1-2-2.8-2.7l-1.8-.7c-2-.8-3.5-1.7-3.5-3.4s1.9-2.9,4.3-2.9,3.4.6,4.3,1.8l-.6.5c-.7-.8-2.2-1.5-3.7-1.5s-3.5.9-3.5,2.2,1,1.9,3,2.7l1.8.7c1.9.8,3.3,1.6,3.3,3.4s-2.1,3-4.5,3-4.3-1.3-4.8-1.8h0Z"/>
  <path class="st0" d="M109.2,30.4c-3.2,0-4.9-1.6-5.2-2l-.4-.4,1.4-1.3.4.4c0,0,1.4,1.4,3.9,1.4s3.2-.5,3.2-1.8-.6-1.5-2.4-2.2l-1.8-.7c-2-.8-3.8-1.8-3.8-3.9s2-3.5,4.8-3.5,3.8.8,4.7,2l.4.4-1.4,1.2-.4-.4c-.6-.7-2-1.3-3.3-1.3s-3,.7-3,1.6.4,1.3,2.7,2.2l1.8.7c1.9.7,3.6,1.7,3.6,3.9s-2,3.6-5,3.6h0Z"/>
  <path class="st0" d="M118.5,29.8v-12.7h.7v12.7s-.7,0-.7,0Z"/>
  <rect class="st0" x="117.9" y="16.5" width="1.9" height="13.9"/>
  <path class="st0" d="M131.5,29.3c-.7.3-1.5.5-2.4.5s-2.3-.3-3.1-.9c-.8-.6-1.5-1.4-1.9-2.3-.4-1-.6-2-.6-3.1s.2-2.2.6-3.1c.4-1,1.1-1.8,1.9-2.3.8-.6,1.9-.9,3.1-.9s1.7.2,2.4.5c.7.3,1.3.8,1.8,1.4l-.6.5c-.4-.5-.9-.9-1.5-1.2-.6-.3-1.3-.4-2.1-.4s-1.9.2-2.6.7c-.8.5-1.3,1.2-1.7,2-.4.9-.6,1.8-.6,2.9s.2,2,.6,2.9c.4.9.9,1.5,1.7,2,.7.5,1.6.8,2.6.8s1.5-.2,2.1-.4c.5-.2.9-.5,1.3-1v-3.9h-4.6v-.7h5.3v4.9c-.5.6-1.1,1-1.8,1.3Z"/>
  <path class="st0" d="M129.1,30.4c-1.3,0-2.5-.3-3.4-1-.9-.7-1.6-1.5-2.1-2.6s-.7-2.2-.7-3.3.2-2.3.7-3.4c.5-1,1.2-1.9,2.1-2.6s2.1-1,3.4-1,1.9.2,2.6.5c.8.4,1.4.9,2,1.6l.4.4-1.4,1.2-.4-.4c-.4-.5-.8-.8-1.3-1-.5-.2-1.2-.4-1.9-.4s-1.7.2-2.3.6c-.7.4-1.1,1-1.5,1.8-.4.8-.5,1.7-.5,2.7s.2,1.9.5,2.7c.3.8.8,1.3,1.5,1.8.6.4,1.4.7,2.3.7s1.3-.1,1.9-.4c.4-.2.7-.4,1-.7v-3.1h-4.6v-1.9h6.4v5.8c-.7.6-1.4,1.1-2.1,1.5-.8.4-1.7.6-2.6.6h0Z"/>
  <path class="st0" d="M147.2,29.8v-6h-8.7v6h-.7v-12.7h.7v6h8.7v-6h.7v12.7s-.7,0-.7,0Z"/>
  <polygon class="st0" points="148.5 30.4 146.6 30.4 146.6 24.4 139 24.4 139 30.4 137.2 30.4 137.2 16.5 139 16.5 139 22.5 146.6 22.5 146.6 16.5 148.5 16.5 148.5 30.4"/>
  <path class="st0" d="M157.2,29.8v-12h-5.1v-.7h10.9v.7h-5.1v12h-.7,0Z"/>
  <polygon class="st0" points="158.5 30.4 156.6 30.4 156.6 18.4 151.5 18.4 151.5 16.5 163.6 16.5 163.6 18.4 158.5 18.4 158.5 30.4"/>
  <path class="st0" d="M167.2,17.1h9.2v.7h-9.2v-.7ZM175.5,23.8h-7.6v6h-.7v-6.7h8.3s0,.7,0,.7Z"/>
  <path class="st0" d="M168.5,30.4h-1.9v-7.9h9.4v1.9h-7.6v6h0ZM177,18.4h-10.3v-1.9h10.3v1.9Z"/>
  <path class="st0" d="M180.7,23.5v-6.4h.7v6.4c0,3.2,1.3,5.6,4.4,5.6s4.4-2.4,4.4-5.6v-6.4h.7v6.4c0,3.3-1.5,6.4-5.1,6.4s-5.1-3-5.1-6.4h0Z"/>
  <path class="st0" d="M185.8,30.4c-3.5,0-5.7-2.7-5.7-6.9v-6.9h1.9v6.9c0,1.9.5,5.1,3.8,5.1s3.8-3.2,3.8-5.1v-6.9h1.9v6.9c0,4.3-2.2,6.9-5.7,6.9Z"/>
  <path class="st0" d="M195.9,29.8v-12.7h.7v12h8.6v.7h-9.3Z"/>
  <polygon class="st0" points="205.8 30.4 195.4 30.4 195.4 16.5 197.2 16.5 197.2 28.5 205.8 28.5 205.8 30.4"/>
  <path class="st0" d="M84.5,35.6h9.2v.7h-9.2v-.7ZM92.8,42.4h-7.6v6h-.7v-6.7h8.3v.7h0Z"/>
  <path class="st0" d="M85.8,48.9h-1.9v-7.9h9.4v1.9h-7.6v6h0ZM94.2,36.9h-10.3v-1.9h10.3v1.9Z"/>
  <path class="st0" d="M98.2,48.4v-12.7h.7v12.7h-.7Z"/>
  <rect class="st0" x="97.7" y="35.1" width="1.9" height="13.9"/>
  <path class="st0" d="M113.2,48.4l-8.6-11.7v11.7h-.7v-12.7h.8l8.6,11.7v-11.7h.7v12.7h-.8Z"/>
  <polygon class="st0" points="113.9 49 113.9 48.9 113 48.9 105.2 38.4 105.2 48.9 103.3 48.9 103.3 35.1 104 35.1 104 35 104.1 35.1 105 35.1 112.8 45.6 112.8 35.1 114.6 35.1 114.6 48.9 113.9 48.9 113.9 49"/>
  <path class="st0" d="M130.4,48.4h-.8l-5.1-11.8-5.1,11.8h-.8l5.5-12.7h.8l5.5,12.7h0Z"/>
  <polygon class="st0" points="131.2 48.9 129.2 48.9 124.5 38 119.8 48.9 117.8 48.9 123.7 35.1 125.3 35.1 131.2 48.9"/>
  <path class="st0" d="M144.3,48.4l-8.6-11.7v11.7h-.7v-12.7h.8l8.6,11.7v-11.7h.7v12.7h-.8Z"/>
  <polygon class="st0" points="144.9 49 144.9 48.9 144 48.9 136.2 38.4 136.2 48.9 134.4 48.9 134.4 35.1 135.1 35.1 135.1 35 135.1 35.1 136 35.1 143.8 45.6 143.8 35.1 145.7 35.1 145.7 48.9 144.9 48.9 144.9 49"/>
  <path class="st0" d="M149.7,42c0-3.3,1.9-6.4,5.6-6.4s3.2.7,4.2,1.9l-.6.5c-.8-1-2-1.6-3.6-1.6-3.1,0-4.9,2.4-4.9,5.6s1.8,5.6,4.9,5.6,2.8-.6,3.6-1.6l.6.5c-1,1.2-2.4,1.9-4.2,1.9-3.7,0-5.6-3-5.6-6.4h0Z"/>
  <path class="st0" d="M155.3,48.9c-4.3,0-6.2-3.6-6.2-6.9s1.9-6.9,6.2-6.9,3.5.7,4.6,2.1l.4.4-1.4,1.2-.4-.4c-.8-.9-1.8-1.4-3.2-1.4-2.6,0-4.4,2-4.4,5.1s1.7,5.1,4.4,5.1,2.4-.5,3.2-1.4l.4-.4,1.4,1.2-.4.4c-1.1,1.3-2.8,2.1-4.6,2.1h0Z"/>
  <path class="st0" d="M164.1,48.4v-12.7h.7v12.7h-.7Z"/>
  <rect class="st0" x="163.5" y="35.1" width="1.9" height="13.9"/>
  <path class="st0" d="M180.7,48.4h-.8l-5.1-11.8-5.1,11.8h-.8l5.5-12.7h.8l5.5,12.7h0Z"/>
  <polygon class="st0" points="181.5 48.9 179.5 48.9 174.8 38 170.1 48.9 168.1 48.9 174 35.1 175.5 35.1 181.5 48.9"/>
  <path class="st0" d="M185.2,48.4v-12.7h.7v12h8.6v.7h-9.3Z"/>
  <polygon class="st0" points="195.1 48.9 184.6 48.9 184.6 35.1 186.5 35.1 186.5 47.1 195.1 47.1 195.1 48.9"/>
  <path class="st0" d="M96.2,66.9h-.8l-5.1-11.8-5.1,11.8h-.8l5.5-12.7h.8l5.5,12.7Z"/>
  <polygon class="st0" points="97.1 67.5 95 67.5 90.3 56.5 85.6 67.5 83.6 67.5 89.6 53.6 91.1 53.6 97.1 67.5"/>
  <path class="st0" d="M110.1,66.9l-8.6-11.7v11.7h-.7v-12.7h.8l8.6,11.7v-11.7h.7v12.7h-.8Z"/>
  <polygon class="st0" points="110.8 67.5 110.7 67.5 109.8 67.5 102 57 102 67.5 100.2 67.5 100.2 53.6 100.9 53.6 100.9 53.6 101 53.6 101.9 53.6 109.7 64.1 109.7 53.6 111.5 53.6 111.5 67.5 110.8 67.5 110.8 67.5"/>
  <path class="st0" d="M127.2,66.9h-.8l-5.1-11.8-5.1,11.8h-.8l5.5-12.7h.8l5.5,12.7h0Z"/>
  <polygon class="st0" points="128.1 67.5 126.1 67.5 121.4 56.5 116.7 67.5 114.6 67.5 120.6 53.6 122.1 53.6 128.1 67.5"/>
  <path class="st0" d="M131.8,66.9v-12.7h.7v12h8.6v.7h-9.3Z"/>
  <polygon class="st0" points="141.7 67.5 131.2 67.5 131.2 53.6 133.1 53.6 133.1 65.6 141.7 65.6 141.7 67.5"/>
  <path class="st0" d="M146.7,66.9v-5.5l-5.6-7.2h.9l5,6.5,5-6.5h.9l-5.6,7.2v5.5h-.7,0Z"/>
  <polygon class="st0" points="148 67.5 146.1 67.5 146.1 61.6 139.9 53.6 142.3 53.6 147 59.7 151.8 53.6 154.1 53.6 148 61.6 148 67.5"/>
  <path class="st0" d="M162,66.9v-12h-5.1v-.7h10.9v.7h-5.1v12h-.7,0Z"/>
  <polygon class="st0" points="163.3 67.5 161.4 67.5 161.4 55.5 156.4 55.5 156.4 53.6 168.4 53.6 168.4 55.5 163.3 55.5 163.3 67.5"/>
  <path class="st0" d="M172.4,66.9v-12.7h.7v12.7h-.7Z"/>
  <rect class="st0" x="171.8" y="53.6" width="1.9" height="13.9"/>
  <path class="st0" d="M177.7,60.5c0-3.3,1.9-6.4,5.6-6.4s3.2.7,4.2,1.9l-.6.5c-.8-1-2-1.6-3.6-1.6-3.1,0-4.9,2.4-4.9,5.6s1.8,5.6,4.9,5.6,2.8-.6,3.6-1.6l.6.5c-1,1.2-2.4,1.9-4.2,1.9-3.7,0-5.6-3-5.6-6.4h0Z"/>
  <path class="st0" d="M183.3,67.5c-4.3,0-6.2-3.6-6.2-6.9s1.9-6.9,6.2-6.9,3.5.7,4.6,2.1l.4.4-1.4,1.2-.4-.4c-.8-.9-1.8-1.4-3.2-1.4-2.6,0-4.4,2-4.4,5.1s1.7,5.1,4.4,5.1,2.4-.5,3.2-1.4l.4-.4,1.4,1.2-.4.4c-1.1,1.3-2.8,2.1-4.6,2.1h0Z"/>
  <path class="st0" d="M191.3,65.1l.5-.5c.4.4,1.8,1.6,4.3,1.6s3.7-.9,3.7-2.3-1-2-2.8-2.7l-1.8-.7c-2-.8-3.5-1.7-3.5-3.4s1.9-2.9,4.3-2.9,3.4.6,4.3,1.8l-.6.5c-.7-.8-2.2-1.5-3.7-1.5s-3.5.9-3.5,2.2,1,1.9,3,2.7l1.8.7c1.9.8,3.3,1.6,3.3,3.4s-2.1,3-4.5,3-4.3-1.3-4.8-1.8h0Z"/>
  <path class="st0" d="M196.1,67.5c-3.2,0-4.9-1.6-5.2-2l-.4-.4,1.3-1.3.4.4c0,0,1.4,1.4,3.9,1.4s3.2-.5,3.2-1.8-.6-1.5-2.4-2.2l-1.8-.7c-2-.8-3.8-1.8-3.8-3.9s2-3.5,4.8-3.5,3.8.8,4.7,2l.4.4-1.4,1.2-.4-.4c-.6-.7-2-1.3-3.3-1.3s-3,.7-3,1.6.4,1.3,2.7,2.2l1.8.7c1.9.7,3.6,1.7,3.6,3.9s-2,3.6-5,3.6h0Z"/>
</svg>