<?xml version="1.0" encoding="UTF-8"?>
<svg id="Layer_1" data-name="Layer 1" xmlns="http://www.w3.org/2000/svg" viewBox="0 0 96 96">
  <defs>
    <style>
      .cls-1 {
        fill: #231f20;
      }

      .cls-2 {
        fill: #fbf7ef;
      }
    </style>
  </defs>
  <circle class="cls-2" cx="48" cy="48" r="48"/>
  <path class="cls-1" d="M78.16,36.84c-4.56-4.39-10.68-6.95-17.03-6.94-4.63,0-9.61,1.48-13.46,4.06-1.29.86-2.52,1.87-3.66,3.01l-6.57,6.58h0c-2.57,2.65-4.15,6.26-4.15,10.23,0,5.21,2.72,9.79,6.82,12.4-2.91,1.23-6.21,1.44-9.33.48-2.1-.64-4.03-1.79-5.62-3.31-2.47-2.57-3.92-6.02-3.91-9.6,0-3.63,1.34-7.01,3.9-9.57.2-.2,23.13-23.21,23.13-23.21l2.76,2.75,4.75-17.74c-7.36,1.97-9.8,2.63-17.74,4.76l2.76,2.75-23.07,23.28h0c-3.39,3.39-5.47,7.47-6.4,12.18-1.56,7.91.9,15.98,6.48,21.77,4.56,4.39,10.68,6.95,17.03,6.94,4.63,0,9.61-1.48,13.46-4.06,1.29-.86,2.52-1.86,3.66-3l6.87-6.87v-.02c2.38-2.61,3.84-6.09,3.84-9.91,0-5.21-2.72-9.79-6.82-12.4,2.91-1.23,6.21-1.44,9.33-.48,2.1.65,4.03,1.79,5.61,3.31,2.48,2.57,3.92,6.02,3.92,9.6s-1.34,7-3.9,9.57c-5.11,5.12-10.24,10.23-15.35,15.35-1.14,1.14-2.37,2.14-3.66,3-3.85,2.58-8.83,4.06-13.46,4.06-1.07,0-2.14-.07-3.19-.21,5.48,3.8,12.14,5.24,18.68,3.95,2.66-.53,7.11-2.11,10.41-4.77l.02.02,13.99-13.98c3.39-3.39,5.47-7.47,6.4-12.18,1.56-7.91-.9-15.98-6.48-21.77l-.02-.03ZM52.9,53.9h0v.11h0v.13h0v.13h0v.13h0v.08h0v.05h0v.42s-.01.02-.01.02c-.43,1.79-1.84,3.2-3.63,3.63h-1.18c-2.72,0-4.92-2.2-4.92-4.91v-.13h0v-.11h0v-.12h0v-.13h0v-.11s0-.02,0-.02h0v-.1s0-.03,0-.03h0v-.12h0v-.14h0v-.15h0v-.02c.43-1.79,1.84-3.2,3.63-3.63h.09s.02-.01.02-.01h.56s.02-.01.02-.01h.51c2.72,0,4.92,2.2,4.92,4.92v.13h-.04Z"/>
</svg>